<?xml version="1.0" encoding="utf-8"?>
<!-- Generator: Adobe Illustrator 23.1.0, SVG Export Plug-In . SVG Version: 6.00 Build 0)  -->
<svg version="1.1" id="Слой_1" xmlns="http://www.w3.org/2000/svg" xmlns:xlink="http://www.w3.org/1999/xlink" x="0px" y="0px"
	 viewBox="0 0 1932.7 423.2" style="enable-background:new 0 0 1932.7 423.2;" xml:space="preserve">
<style type="text/css">
	.st0{clip-path:url(#SVGID_2_);fill:#FFFFFF;}
	.st1{clip-path:url(#SVGID_4_);fill:#FFFFFF;}
	.st2{clip-path:url(#SVGID_6_);fill:#FFFFFF;}
	.st3{clip-path:url(#SVGID_8_);fill:#FCFCFC;}
	.st4{clip-path:url(#SVGID_10_);fill:#FFFFFF;}
	.st5{clip-path:url(#SVGID_12_);fill:#FFFFFF;}
	.st6{clip-path:url(#SVGID_14_);fill:#DDDDDD;}
	.st7{clip-path:url(#SVGID_16_);fill:#FFFFFF;}
	.st8{clip-path:url(#SVGID_18_);fill:#FFFFFF;}
	.st9{clip-path:url(#SVGID_20_);fill:#DDDDDD;}
	.st10{clip-path:url(#SVGID_22_);fill:#DDDDDD;}
	.st11{clip-path:url(#SVGID_24_);fill:#DDDDDD;}
	.st12{clip-path:url(#SVGID_26_);fill:#DDDDDD;}
	.st13{clip-path:url(#SVGID_28_);fill:#DDDDDD;}
	.st14{clip-path:url(#SVGID_30_);fill:#DDDDDD;}
	.st15{clip-path:url(#SVGID_32_);fill:#DDDDDD;}
	.st16{clip-path:url(#SVGID_34_);fill:#DDDDDD;}
	.st17{clip-path:url(#SVGID_36_);fill:#DDDDDD;}
	.st18{clip-path:url(#SVGID_38_);fill:#DDDDDD;}
	.st19{clip-path:url(#SVGID_40_);fill:#DDDDDD;}
	.st20{clip-path:url(#SVGID_42_);fill:#DDDDDD;}
	.st21{clip-path:url(#SVGID_44_);fill:#DDDDDD;}
	.st22{clip-path:url(#SVGID_46_);fill:#DDDDDD;}
	.st23{clip-path:url(#SVGID_48_);fill:#DDDDDD;}
	.st24{clip-path:url(#SVGID_50_);fill:#DDDDDD;}
	.st25{clip-path:url(#SVGID_52_);fill:#DDDDDD;}
	.st26{clip-path:url(#SVGID_54_);fill:#DDDDDD;}
	.st27{clip-path:url(#SVGID_56_);fill:#DDDDDD;}
	.st28{clip-path:url(#SVGID_58_);fill:#DDDDDD;}
</style>
<g>
	<g>
		<defs>
			<rect id="SVGID_1_" y="-36.3" width="1920" height="1080"/>
		</defs>
		<clipPath id="SVGID_2_">
			<use xlink:href="#SVGID_1_"  style="overflow:visible;"/>
		</clipPath>
		<path class="st0" d="M181,48.7h92.8c10,0,18.1-8.1,18.1-18.1s-8.1-18.1-18.1-18.1H181c-10,0-18.1,8.1-18.1,18.1
			C162.9,40.6,171,48.7,181,48.7"/>
	</g>
	<g>
		<defs>
			<rect id="SVGID_3_" y="-36.3" width="1920" height="1080"/>
		</defs>
		<clipPath id="SVGID_4_">
			<use xlink:href="#SVGID_3_"  style="overflow:visible;"/>
		</clipPath>
		<path class="st1" d="M140.9,84.9c-10,0-18.1,8.1-18.1,18.1s8.1,18.1,18.1,18.1h16c10,0,18.1-8.1,18.1-18.1
			c0-10-8.1-18.1-18.1-18.1H140.9z"/>
	</g>
	<g>
		<defs>
			<rect id="SVGID_5_" y="-36.3" width="1920" height="1080"/>
		</defs>
		<clipPath id="SVGID_6_">
			<use xlink:href="#SVGID_5_"  style="overflow:visible;"/>
		</clipPath>
		<path class="st2" d="M136.7,175.3c0-10-8.1-18.1-18.1-18.1H21.2c-10,0-18.1,8.1-18.1,18.1s8.1,18.1,18.1,18.1h97.4
			C128.6,193.4,136.7,185.3,136.7,175.3"/>
	</g>
	<g>
		<defs>
			<rect id="SVGID_7_" y="-36.3" width="1920" height="1080"/>
		</defs>
		<clipPath id="SVGID_8_">
			<use xlink:href="#SVGID_7_"  style="overflow:visible;"/>
		</clipPath>
		<path class="st3" d="M81.5,229.5H48c-10,0-18.1,8.1-18.1,18.1c0,10,8.1,18.1,18.1,18.1h33.5c10,0,18.1-8.1,18.1-18.1
			C99.6,237.6,91.5,229.5,81.5,229.5"/>
	</g>
	<g>
		<defs>
			<rect id="SVGID_9_" y="-36.3" width="1920" height="1080"/>
		</defs>
		<clipPath id="SVGID_10_">
			<use xlink:href="#SVGID_9_"  style="overflow:visible;"/>
		</clipPath>
		<path class="st4" d="M306.7,374.1H160.8c-11.2,0-20.1,10.3-17.7,21.9c1.7,8.5,9.6,14.2,18.3,14.2h145.8c11.8,0,21-11.4,17.2-23.8
			C322.1,379,314.6,374.1,306.7,374.1"/>
	</g>
	<g>
		<defs>
			<rect id="SVGID_11_" y="-36.3" width="1920" height="1080"/>
		</defs>
		<clipPath id="SVGID_12_">
			<use xlink:href="#SVGID_11_"  style="overflow:visible;"/>
		</clipPath>
		<path class="st5" d="M140.9,265.7h139.9c10,0,18.1-8.1,18.1-18.1s-8.1-18.1-18.1-18.1H140.9c-10,0-18.1,8.1-18.1,18.1
			C122.8,257.6,130.9,265.7,140.9,265.7"/>
	</g>
	<g>
		<defs>
			<rect id="SVGID_13_" y="-36.3" width="1920" height="1080"/>
		</defs>
		<clipPath id="SVGID_14_">
			<use xlink:href="#SVGID_13_"  style="overflow:visible;"/>
		</clipPath>
		<path class="st6" d="M572.6,201.1l58-58.1c3.4-3.4,8-5.3,12.8-5.3h23.3c16.1,0,24.2,19.5,12.8,30.9L647,201.2
			c-7,7.1-7,18.5,0,25.6l32.5,32.6c11.4,11.4,3.3,30.9-12.8,30.9h-23.3c-4.8,0-9.4-1.9-12.8-5.3l-58-58.1
			C565.6,219.6,565.6,208.2,572.6,201.1"/>
	</g>
	<g>
		<defs>
			<rect id="SVGID_15_" y="-36.3" width="1920" height="1080"/>
		</defs>
		<clipPath id="SVGID_16_">
			<use xlink:href="#SVGID_15_"  style="overflow:visible;"/>
		</clipPath>
		<path class="st7" d="M610.6,13c-3.8,0-262.8-0.5-262.8-0.5c-10,0-18.1,8.1-18.1,18.1s8.1,18.1,18.1,18.1h53.9
			c10,0,18.1,8.1,18.1,18.1s-8.1,18.1-18.1,18.1H231.3c-10,0-18.1,8.1-18.1,18.1s8.1,18.1,18.1,18.1c0,0,165.9,0,166.3,0h0.4
			c0,0,0,0,0,0c9.3,0.7,16.7,8.4,16.7,17.9c0,10-8.1,18.2-18.1,18.2l-203,0c-10,0-18.1,8.1-18.1,18.1s8.1,18.1,18.1,18.1h179
			c10,0,18.1,8.1,18.1,18.1s-8.1,18.1-18.1,18.1h-35c-10,0-18.1,8.1-18.1,18.1s8.1,18.1,18.1,18.1h64.9c10,0,18.1,8.1,18.1,18.1
			c0,10-8.1,18.1-18.1,18.1H225.4c-10,0-18.1,8.1-18.1,18.1c0,10,8.1,18.1,18.1,18.1h205.4c10,0,18.1,8.1,18.1,18.1
			c0,10-8.1,18.1-18.1,18.1h-52.8c-10,0-18.1,8.1-18.1,18.1c0,10,8.1,18.1,18.1,18.1c0,0,227.9,0.5,232.5,0.5
			c109.8,0,198.9-89,198.9-198.9C809.5,102.1,720.4,13,610.6,13 M610.2,362c-82.2,0-148.8-66.6-148.8-148.8
			c0-82.2,66.6-148.8,148.8-148.8S759,131,759,213.2C759,295.4,692.3,362,610.2,362"/>
	</g>
	<g>
		<defs>
			<rect id="SVGID_17_" y="-36.3" width="1920" height="1080"/>
		</defs>
		<clipPath id="SVGID_18_">
			<use xlink:href="#SVGID_17_"  style="overflow:visible;"/>
		</clipPath>
		<path class="st8" d="M624.3,204.4c-19.1-19.8-44.6-46.1-63-64.5c-8.6-8.6-23.3-2.5-23.3,9.6v127.6c0,12.2,14.7,18.2,23.3,9.6
			l62.8-63.3C629.4,218.1,629.5,209.7,624.3,204.4"/>
	</g>
	<g>
		<defs>
			<rect id="SVGID_19_" y="-36.3" width="1920" height="1080"/>
		</defs>
		<clipPath id="SVGID_20_">
			<use xlink:href="#SVGID_19_"  style="overflow:visible;"/>
		</clipPath>
		<polygon class="st9" points="1037.5,297.9 985.5,297.9 923,221.4 923,297.9 881.5,297.9 881.5,129.1 923,129.1 923,204.6 
			979.5,129.1 1030.6,129.1 966,209.8 		"/>
	</g>
	<g>
		<defs>
			<rect id="SVGID_21_" y="-36.3" width="1920" height="1080"/>
		</defs>
		<clipPath id="SVGID_22_">
			<use xlink:href="#SVGID_21_"  style="overflow:visible;"/>
		</clipPath>
		<path class="st10" d="M1125.5,301.4c-26.9,0-48.9-8.1-65.9-24.3s-25.5-37.4-25.5-63.5c0-25.9,8.4-47.1,25.3-63.5
			s38.9-24.6,66.1-24.6c27.1,0,49.1,8.1,66.1,24.4c17,16.3,25.5,37.5,25.5,63.6c0,26-8.4,47.1-25.3,63.4
			C1175,293.3,1152.9,301.4,1125.5,301.4 M1090.9,249c8.7,9,20.3,13.5,34.7,13.5c14.4,0,26-4.5,34.8-13.4s13.2-20.8,13.2-35.5
			s-4.4-26.6-13.1-35.6c-8.7-9-20.3-13.5-34.9-13.5c-14.2,0-25.8,4.5-34.5,13.5s-13.2,20.9-13.2,35.6
			C1077.8,228.2,1082.2,239.9,1090.9,249"/>
	</g>
	<g>
		<defs>
			<rect id="SVGID_23_" y="-36.3" width="1920" height="1080"/>
		</defs>
		<clipPath id="SVGID_24_">
			<use xlink:href="#SVGID_23_"  style="overflow:visible;"/>
		</clipPath>
		<path class="st11" d="M1243.5,298.8c-7.1,0-13.5-0.3-19.2-1V262h9.7c8.1,0,13.9-3.4,17.4-10.3c3.6-6.9,5.3-17.9,5.3-33.1v-89.5
			h134.1v168.8h-41.3V167.3h-51.3v57.4c0,27.2-4.8,46.4-14.4,57.5C1274.4,293.3,1260.9,298.8,1243.5,298.8"/>
	</g>
	<g>
		<defs>
			<rect id="SVGID_25_" y="-36.3" width="1920" height="1080"/>
		</defs>
		<clipPath id="SVGID_26_">
			<use xlink:href="#SVGID_25_"  style="overflow:visible;"/>
		</clipPath>
		<polygon class="st12" points="1419.4,297.9 1419.4,129.1 1546.9,129.1 1546.9,165.9 1459.8,165.9 1459.8,197.7 1533.1,197.7 
			1533.1,232.1 1459.8,232.1 1459.8,261.1 1549.9,261.1 1549.9,297.9 		"/>
	</g>
	<g>
		<defs>
			<rect id="SVGID_27_" y="-36.3" width="1920" height="1080"/>
		</defs>
		<clipPath id="SVGID_28_">
			<use xlink:href="#SVGID_27_"  style="overflow:visible;"/>
		</clipPath>
		<path class="st13" d="M1649.9,301.4c-27.4,0-49.2-7.9-65.4-23.7c-16.2-15.8-24.3-37.3-24.3-64.6c0-27.1,8.1-48.4,24.3-64
			c16.2-15.6,38-23.4,65.4-23.4c15.7,0,29.9,2.9,42.7,8.7c12.8,5.8,23.4,13.7,31.8,23.9l-32.5,27.1c-4.3-6.2-9.9-11.1-17-14.8
			c-7-3.7-14.9-5.6-23.6-5.6c-14.6,0-26.1,4.3-34.7,12.8c-8.6,8.6-12.8,20.3-12.8,35.4c0,15.2,4.3,27.2,12.8,36
			c8.6,8.8,20.1,13.2,34.7,13.2c17.9,0,31.4-6.7,40.6-20.2l32.5,27.3C1706.7,290.8,1681.8,301.4,1649.9,301.4"/>
	</g>
	<g>
		<defs>
			<rect id="SVGID_29_" y="-36.3" width="1920" height="1080"/>
		</defs>
		<clipPath id="SVGID_30_">
			<use xlink:href="#SVGID_29_"  style="overflow:visible;"/>
		</clipPath>
		<path class="st14" d="M1825.8,301.4c-26.9,0-48.9-8.1-65.9-24.3s-25.5-37.4-25.5-63.5c0-25.9,8.4-47.1,25.3-63.5
			s38.9-24.6,66.1-24.6c27.1,0,49.1,8.1,66.1,24.4c17,16.3,25.5,37.5,25.5,63.6c0,26-8.4,47.1-25.3,63.4
			C1875.3,293.3,1853.2,301.4,1825.8,301.4 M1791.1,249c8.7,9,20.3,13.5,34.7,13.5c14.4,0,26-4.5,34.8-13.4s13.2-20.8,13.2-35.5
			s-4.4-26.6-13.1-35.6c-8.7-9-20.3-13.5-34.9-13.5c-14.2,0-25.8,4.5-34.5,13.5s-13.2,20.9-13.2,35.6
			C1778.1,228.2,1782.4,240,1791.1,249"/>
	</g>
	<g>
		<defs>
			<rect id="SVGID_31_" y="-36.3" width="1920" height="1080"/>
		</defs>
		<clipPath id="SVGID_32_">
			<use xlink:href="#SVGID_31_"  style="overflow:visible;"/>
		</clipPath>
		<path class="st15" d="M911.8,326.7h10.3l-15.8,38.9c-1.1,2.9-2.4,5.2-3.8,7c-1.4,1.8-2.9,3.2-4.5,4c-1.6,0.8-3.1,1.4-4.4,1.7
			c-1.3,0.3-2.9,0.4-4.7,0.4c-2.5,0-4.6-0.3-6.3-0.8v-8.4c2.1,0.7,3.9,1,5.6,1c4,0,6.9-1.7,8.7-5.2l-17.3-38.5h10.8l10.9,26.8
			L911.8,326.7z"/>
	</g>
	<g>
		<defs>
			<rect id="SVGID_33_" y="-36.3" width="1920" height="1080"/>
		</defs>
		<clipPath id="SVGID_34_">
			<use xlink:href="#SVGID_33_"  style="overflow:visible;"/>
		</clipPath>
		<polygon class="st16" points="965.9,326.5 970.9,326.5 970.9,365.2 961.9,365.2 961.9,344.8 950.7,359.3 947.3,359.3 936.1,344.8 
			936.1,365.2 927.1,365.2 927.1,326.5 932.1,326.5 949,348 		"/>
	</g>
	<g>
		<defs>
			<rect id="SVGID_35_" y="-36.3" width="1920" height="1080"/>
		</defs>
		<clipPath id="SVGID_36_">
			<use xlink:href="#SVGID_35_"  style="overflow:visible;"/>
		</clipPath>
		<polygon class="st17" points="1007.3,326.7 1017,326.7 1017,365.2 1007.3,365.2 1007.3,351.4 990,351.4 990,365.2 980.2,365.2 
			980.2,326.7 990,326.7 990,343.2 1007.3,343.2 		"/>
	</g>
	<g>
		<defs>
			<rect id="SVGID_37_" y="-36.3" width="1920" height="1080"/>
		</defs>
		<clipPath id="SVGID_38_">
			<use xlink:href="#SVGID_37_"  style="overflow:visible;"/>
		</clipPath>
		<path class="st18" d="M1042.8,366c-5.6,0-10.1-1.8-13.5-5.5c-3.4-3.6-5.1-8.5-5.1-14.7c0-6.1,1.7-11,5-14.6
			c3.3-3.6,7.7-5.5,13.2-5.5c5,0,9,1.4,11.8,4.2v-3.3h9.6v38.5h-9.4v-3.7C1051.8,364.5,1048,366,1042.8,366 M1044.9,357.3
			c4.4,0,7.6-1.7,9.4-5.1v-12.8c-0.9-1.5-2.3-2.8-4.1-3.6c-1.8-0.9-3.6-1.3-5.6-1.3c-3.2,0-5.7,1-7.6,3c-1.9,2-2.9,4.8-2.9,8.3
			c0,3.5,1,6.3,2.9,8.4C1039,356.3,1041.6,357.3,1044.9,357.3"/>
	</g>
	<g>
		<defs>
			<rect id="SVGID_39_" y="-36.3" width="1920" height="1080"/>
		</defs>
		<clipPath id="SVGID_40_">
			<use xlink:href="#SVGID_39_"  style="overflow:visible;"/>
		</clipPath>
		<path class="st19" d="M1088.3,326.7h18.6v38.5h-9.7V354h-8.7l-7.2,11.2h-10.6l8.2-12.6c-5-1.9-7.5-5.9-7.5-11.9
			c0-4.8,1.4-8.3,4.1-10.6C1078.3,327.9,1082.6,326.7,1088.3,326.7 M1097.4,346.7v-12h-8.6c-4.9,0-7.3,2-7.3,5.9c0,4,2.3,6.1,7,6.1
			H1097.4z"/>
	</g>
	<g>
		<defs>
			<rect id="SVGID_41_" y="-36.3" width="1920" height="1080"/>
		</defs>
		<clipPath id="SVGID_42_">
			<use xlink:href="#SVGID_41_"  style="overflow:visible;"/>
		</clipPath>
		<path class="st20" d="M1147.4,366c-5.6,0-10.1-1.8-13.5-5.5c-3.4-3.6-5.1-8.5-5.1-14.7c0-6.1,1.7-11,5-14.6
			c3.3-3.6,7.7-5.5,13.2-5.5c5,0,9,1.4,11.8,4.2v-3.3h9.6v38.5h-9.4v-3.7C1156.4,364.5,1152.6,366,1147.4,366 M1149.5,357.3
			c4.4,0,7.6-1.7,9.4-5.1v-12.8c-0.9-1.5-2.3-2.8-4.1-3.6c-1.8-0.9-3.6-1.3-5.6-1.3c-3.2,0-5.7,1-7.6,3c-1.9,2-2.9,4.8-2.9,8.3
			c0,3.5,1,6.3,2.9,8.4C1143.6,356.3,1146.2,357.3,1149.5,357.3"/>
	</g>
	<g>
		<defs>
			<rect id="SVGID_43_" y="-36.3" width="1920" height="1080"/>
		</defs>
		<clipPath id="SVGID_44_">
			<use xlink:href="#SVGID_43_"  style="overflow:visible;"/>
		</clipPath>
		<path class="st21" d="M1206.7,344.3c2.5,0.6,4.4,1.7,5.8,3.4c1.4,1.6,2.1,3.7,2.1,6.3c0,3.7-1.2,6.5-3.7,8.4
			c-2.4,1.9-6.4,2.9-11.8,2.9h-21.7v-38.4h20.9c9,0,13.5,3.1,13.5,9.4C1211.9,340.3,1210.1,343,1206.7,344.3 M1186.9,334.6v7.8h10
			c3.7,0,5.6-1.4,5.6-4.3c0-2.4-1.7-3.5-5.2-3.5L1186.9,334.6z M1199.1,357.3c3.8,0,5.8-1.3,5.8-4c0-2.6-2.1-4-6.3-4h-11.6v7.9
			L1199.1,357.3z"/>
	</g>
	<g>
		<defs>
			<rect id="SVGID_45_" y="-36.3" width="1920" height="1080"/>
		</defs>
		<clipPath id="SVGID_46_">
			<use xlink:href="#SVGID_45_"  style="overflow:visible;"/>
		</clipPath>
		<polygon class="st22" points="1251.5,326.7 1251.5,335.5 1239.4,335.5 1239.4,365.2 1229.8,365.2 1229.8,335.5 1217.7,335.5 
			1217.7,326.7 		"/>
	</g>
	<g>
		<defs>
			<rect id="SVGID_47_" y="-36.3" width="1920" height="1080"/>
		</defs>
		<clipPath id="SVGID_48_">
			<use xlink:href="#SVGID_47_"  style="overflow:visible;"/>
		</clipPath>
		<path class="st23" d="M1275.9,366c-6.4,0-11.5-1.8-15.4-5.5c-3.9-3.6-5.8-8.5-5.8-14.7c0-6.1,1.9-10.9,5.8-14.5
			c3.9-3.6,9-5.5,15.4-5.5s11.4,1.8,15.3,5.5c3.8,3.6,5.8,8.5,5.8,14.5c0,6.1-1.9,11-5.8,14.7C1287.3,364.2,1282.3,366,1275.9,366
			 M1275.9,357.2c3.3,0,5.9-1,8-3.1s3.1-4.8,3.1-8.2c0-3.3-1-6-3.1-8.1c-2-2-4.7-3.1-8-3.1c-3.3,0-6,1-8.1,3.1
			c-2.1,2-3.1,4.7-3.1,8.1c0,3.4,1,6.1,3.1,8.2C1269.9,356.1,1272.6,357.2,1275.9,357.2"/>
	</g>
	<g>
		<defs>
			<rect id="SVGID_49_" y="-36.3" width="1920" height="1080"/>
		</defs>
		<clipPath id="SVGID_50_">
			<use xlink:href="#SVGID_49_"  style="overflow:visible;"/>
		</clipPath>
		<polygon class="st24" points="1304.2,365.2 1304.2,326.7 1313.9,326.7 1313.9,356.5 1328.2,356.5 1328.2,326.7 1337.8,326.7 
			1337.8,356.5 1352.1,356.5 1352.1,326.7 1361.8,326.7 1361.8,365.2 		"/>
	</g>
	<g>
		<defs>
			<rect id="SVGID_51_" y="-36.3" width="1920" height="1080"/>
		</defs>
		<clipPath id="SVGID_52_">
			<use xlink:href="#SVGID_51_"  style="overflow:visible;"/>
		</clipPath>
		<polygon class="st25" points="1409.1,365.2 1396.4,365.2 1380.7,348.2 1380.7,365.2 1371.1,365.2 1371.1,326.7 1380.7,326.7 
			1380.7,345.5 1396.9,326.7 1408.7,326.7 1391.1,346.4 		"/>
	</g>
	<g>
		<defs>
			<rect id="SVGID_53_" y="-36.3" width="1920" height="1080"/>
		</defs>
		<clipPath id="SVGID_54_">
			<use xlink:href="#SVGID_53_"  style="overflow:visible;"/>
		</clipPath>
		<path class="st26" d="M1432.2,366c-6.4,0-11.5-1.8-15.4-5.5c-3.9-3.6-5.8-8.5-5.8-14.7c0-6.1,1.9-10.9,5.8-14.5
			c3.9-3.6,9-5.5,15.4-5.5s11.4,1.8,15.3,5.5c3.8,3.6,5.8,8.5,5.8,14.5c0,6.1-1.9,11-5.8,14.7C1443.6,364.2,1438.5,366,1432.2,366
			 M1432.2,357.2c3.3,0,5.9-1,8-3.1s3.1-4.8,3.1-8.2c0-3.3-1-6-3.1-8.1c-2-2-4.7-3.1-8-3.1c-3.3,0-6,1-8.1,3.1
			c-2.1,2-3.1,4.7-3.1,8.1c0,3.4,1,6.1,3.1,8.2C1426.1,356.1,1428.8,357.2,1432.2,357.2"/>
	</g>
	<g>
		<defs>
			<rect id="SVGID_55_" y="-36.3" width="1920" height="1080"/>
		</defs>
		<clipPath id="SVGID_56_">
			<use xlink:href="#SVGID_55_"  style="overflow:visible;"/>
		</clipPath>
		<path class="st27" d="M1460,365.4c-1.9,0-3.3-0.1-4.2-0.2v-8.5h2.1c2.3,0,4-0.9,4.9-2.7c0.9-1.8,1.3-4.5,1.3-8v-19.3h32.2v38.5
			h-9.7v-29.7h-13.2v12.8c0,6.2-1.1,10.6-3.4,13.2C1467.8,364.1,1464.4,365.4,1460,365.4"/>
	</g>
	<g>
		<defs>
			<rect id="SVGID_57_" y="-36.3" width="1920" height="1080"/>
		</defs>
		<clipPath id="SVGID_58_">
			<use xlink:href="#SVGID_57_"  style="overflow:visible;"/>
		</clipPath>
		<path class="st28" d="M1522.1,366c-5.6,0-10.1-1.8-13.5-5.5c-3.4-3.6-5.1-8.5-5.1-14.7c0-6.1,1.7-11,5-14.6
			c3.3-3.6,7.7-5.5,13.2-5.5c5,0,9,1.4,11.8,4.2v-3.3h9.6v38.5h-9.4v-3.7C1531.1,364.5,1527.3,366,1522.1,366 M1524.2,357.3
			c4.4,0,7.6-1.7,9.4-5.1v-12.8c-0.9-1.5-2.3-2.8-4.1-3.6c-1.8-0.9-3.6-1.3-5.6-1.3c-3.2,0-5.7,1-7.6,3c-1.9,2-2.9,4.8-2.9,8.3
			c0,3.5,1,6.3,2.9,8.4C1518.3,356.3,1520.9,357.3,1524.2,357.3"/>
	</g>
</g>
</svg>
