<?xml version="1.0" encoding="utf-8"?>
<!-- Generator: Adobe Illustrator 23.1.0, SVG Export Plug-In . SVG Version: 6.00 Build 0)  -->
<svg version="1.1" id="Слой_1" xmlns="http://www.w3.org/2000/svg" xmlns:xlink="http://www.w3.org/1999/xlink" x="0px" y="0px"
	 viewBox="0 0 1932.68 423.19" style="enable-background:new 0 0 1932.68 423.19;" xml:space="preserve">
<style type="text/css">
	.st0{clip-path:url(#SVGID_2_);fill:#FFCE00;}
	.st1{clip-path:url(#SVGID_2_);}
</style>
<g>
	<defs>
		<rect id="SVGID_1_" y="-36.3" width="1920" height="1080"/>
	</defs>
	<clipPath id="SVGID_2_">
		<use xlink:href="#SVGID_1_"  style="overflow:visible;"/>
	</clipPath>
	<path class="st0" d="M180.96,48.72l92.75,0c9.98,0,18.08-8.09,18.08-18.08c0-9.99-8.09-18.08-18.08-18.08l-92.75,0
		c-9.98,0-18.08,8.09-18.08,18.08C162.89,40.63,170.98,48.72,180.96,48.72"/>
	<path class="st0" d="M140.93,84.88c-9.98,0-18.08,8.09-18.08,18.08c0,9.99,8.09,18.08,18.08,18.08l15.96,0
		c9.98,0,18.08-8.09,18.08-18.08c0-9.98-8.1-18.08-18.08-18.08L140.93,84.88z"/>
	<path class="st0" d="M136.66,175.27c0-9.98-8.1-18.08-18.08-18.08l-97.42,0c-9.98,0-18.08,8.1-18.08,18.08
		c0,9.98,8.1,18.08,18.08,18.08l97.42,0C128.56,193.35,136.66,185.26,136.66,175.27"/>
	<path class="st0" d="M81.5,229.51l-33.51,0c-9.98,0-18.08,8.09-18.08,18.08c0,9.99,8.09,18.08,18.08,18.08l33.51,0
		c9.98,0,18.08-8.09,18.08-18.08C99.57,237.6,91.48,229.51,81.5,229.51"/>
	<path class="st0" d="M306.72,374.14l-145.89,0c-11.23,0-20.08,10.25-17.68,21.92c1.74,8.45,9.63,14.24,18.26,14.24l145.78,0
		c11.83,0,21.01-11.37,17.21-23.78C322.08,378.96,314.63,374.14,306.72,374.14"/>
	<path class="st0" d="M140.93,265.67l139.93,0c9.98,0,18.08-8.09,18.08-18.08c0-9.99-8.1-18.08-18.08-18.08l-139.93,0
		c-9.98,0-18.08,8.09-18.08,18.08C122.85,257.57,130.95,265.67,140.93,265.67"/>
	<path class="st1" d="M572.62,201.15l57.95-58.11c3.39-3.4,8-5.31,12.81-5.31l23.3,0c16.11,0,24.18,19.46,12.81,30.86l-32.48,32.57
		c-7.04,7.06-7.04,18.49,0,25.55l32.48,32.57c11.37,11.4,3.3,30.86-12.81,30.86l-23.3,0c-4.81,0-9.42-1.91-12.81-5.32l-57.95-58.11
		C565.58,219.63,565.58,208.21,572.62,201.15"/>
	<path class="st0" d="M610.59,13.03c-3.85,0-262.77-0.47-262.77-0.47c-9.98,0-18.08,8.1-18.08,18.08s8.1,18.08,18.08,18.08l53.9,0
		c9.98,0,18.08,8.1,18.08,18.08c0,9.98-8.1,18.08-18.08,18.08l-170.46,0c-9.98,0-18.08,8.1-18.08,18.08s8.1,18.08,18.08,18.08
		c0,0,165.94-0.02,166.27,0h0.44c-0.01,0.02-0.02,0.03-0.02,0.04c9.32,0.73,16.68,8.43,16.68,17.94c0,9.98-8.1,18.2-18.08,18.2
		l-202.97-0.03c-9.98,0-18.08,8.1-18.08,18.08c0,9.98,8.1,18.08,18.08,18.08l179,0c9.98,0,18.08,8.1,18.08,18.08
		c0,9.98-8.1,18.08-18.08,18.08l-34.96,0c-9.98,0-18.08,8.1-18.08,18.08c0,9.98,8.1,18.08,18.08,18.08l64.93,0
		c9.98,0,18.08,8.1,18.08,18.08c0,9.98-8.1,18.08-18.08,18.08l-177.11,0c-9.98,0-18.08,8.1-18.08,18.08
		c0,9.98,8.1,18.08,18.08,18.08l205.42,0c9.98,0,18.08,8.1,18.08,18.08c0,9.98-8.1,18.08-18.08,18.08l-52.76,0
		c-9.98,0-18.08,8.1-18.08,18.08c0,9.98,8.1,18.08,18.08,18.08c0,0,227.88,0.47,232.5,0.47c109.83,0,198.87-89.04,198.87-198.87
		C809.46,102.06,720.42,13.03,610.59,13.03 M610.18,361.96c-82.17,0-148.77-66.61-148.77-148.78c0-82.16,66.61-148.77,148.78-148.77
		c82.17,0,148.77,66.61,148.77,148.77C758.96,295.35,692.35,361.96,610.18,361.96"/>
	<path class="st0" d="M624.32,204.35c-19.07-19.75-44.64-46.06-62.99-64.48c-8.57-8.6-23.27-2.53-23.27,9.61l0,127.63
		c0,12.16,14.72,18.22,23.28,9.59l62.84-63.3C629.41,218.14,629.46,209.68,624.32,204.35"/>
	<polygon class="st1" points="1037.46,297.88 985.48,297.88 923.05,221.44 923.05,297.88 881.51,297.87 881.51,129.1 923.05,129.1 
		923.05,204.58 979.54,129.1 1030.58,129.1 966.01,209.81 	"/>
	<path class="st1" d="M1125.53,301.44c-26.91,0-48.86-8.11-65.87-24.33c-17.01-16.22-25.52-37.39-25.52-63.5
		c0-25.95,8.43-47.12,25.28-63.5c16.85-16.38,38.89-24.57,66.11-24.56c27.06,0,49.09,8.15,66.11,24.45
		c17.01,16.3,25.52,37.51,25.52,63.62c0,25.96-8.43,47.08-25.28,63.38C1175.02,293.29,1152.9,301.44,1125.53,301.44 M1090.87,248.98
		c8.7,9.02,20.25,13.53,34.66,13.53c14.4,0,25.99-4.47,34.77-13.41c8.78-8.94,13.18-20.77,13.18-35.49
		c0-14.72-4.36-26.58-13.06-35.61c-8.71-9.02-20.34-13.53-34.9-13.53c-14.24,0-25.76,4.51-34.54,13.53
		c-8.78,9.02-13.17,20.89-13.17,35.61C1077.82,228.17,1082.17,239.95,1090.87,248.98"/>
	<path class="st1" d="M1243.5,298.82c-7.12,0-13.53-0.32-19.22-0.95l0-35.84l9.73,0c8.07,0,13.89-3.44,17.45-10.33
		c3.56-6.88,5.34-17.92,5.34-33.11l0-89.49l134.12,0l0,168.77l-41.31,0l0-130.56l-51.27,0l0,57.44c0,27.22-4.79,46.37-14.36,57.45
		C1274.4,293.29,1260.91,298.82,1243.5,298.82"/>
	<polygon class="st1" points="1419.39,297.88 1419.4,129.11 1546.86,129.11 1546.86,165.9 1459.75,165.9 1459.75,197.7 
		1533.1,197.7 1533.1,232.12 1459.75,232.12 1459.75,261.08 1549.95,261.08 1549.95,297.88 	"/>
	<path class="st1" d="M1649.89,301.44c-27.38,0-49.18-7.91-65.4-23.74c-16.22-15.82-24.33-37.34-24.33-64.57
		c0-27.06,8.1-48.38,24.33-63.97c16.22-15.59,38.02-23.38,65.4-23.38c15.67,0,29.91,2.89,42.72,8.66
		c12.82,5.78,23.42,13.73,31.81,23.86l-32.52,27.06c-4.27-6.17-9.93-11.12-16.97-14.83c-7.04-3.72-14.92-5.58-23.62-5.58
		c-14.56,0-26.11,4.27-34.66,12.81c-8.55,8.55-12.82,20.34-12.82,35.37c0,15.19,4.27,27.18,12.82,35.96
		c8.55,8.78,20.1,13.17,34.66,13.17c17.88,0,31.41-6.72,40.59-20.17l32.52,27.3C1706.7,290.76,1681.85,301.44,1649.89,301.44"/>
	<path class="st1" d="M1825.78,301.44c-26.91,0-48.86-8.11-65.87-24.33c-17.01-16.22-25.52-37.39-25.52-63.5
		c0-25.95,8.43-47.12,25.28-63.5c16.85-16.38,38.89-24.57,66.11-24.56c27.06,0,49.09,8.15,66.11,24.45
		c17.01,16.3,25.52,37.51,25.52,63.62c0,25.96-8.43,47.08-25.28,63.38C1875.27,293.29,1853.15,301.44,1825.78,301.44
		 M1791.12,248.98c8.7,9.02,20.25,13.53,34.66,13.53c14.4,0,25.99-4.47,34.77-13.41c8.78-8.94,13.18-20.77,13.18-35.49
		c0-14.72-4.36-26.58-13.06-35.61c-8.71-9.02-20.34-13.53-34.9-13.53c-14.24,0-25.76,4.51-34.54,13.53
		c-8.78,9.02-13.17,20.89-13.17,35.61C1778.07,228.17,1782.42,239.96,1791.12,248.98"/>
	<path class="st1" d="M911.77,326.74l10.35,0l-15.78,38.89c-1.13,2.87-2.39,5.21-3.8,7.04c-1.41,1.83-2.91,3.16-4.51,3.98
		c-1.6,0.82-3.06,1.37-4.4,1.66c-1.34,0.28-2.9,0.42-4.69,0.42c-2.49,0-4.58-0.28-6.27-0.84l0-8.38c2.07,0.66,3.92,0.99,5.57,0.99
		c3.99,0,6.88-1.74,8.66-5.21l-17.26-38.53l10.85,0l10.92,26.84L911.77,326.74z"/>
	<polygon class="st1" points="965.94,326.53 970.87,326.53 970.87,365.2 961.86,365.2 961.86,344.84 950.66,359.28 947.35,359.28 
		936.14,344.84 936.14,365.2 927.13,365.2 927.13,326.53 932.06,326.53 949.04,348.01 	"/>
	<polygon class="st1" points="1007.3,326.74 1017.02,326.74 1017.02,365.2 1007.3,365.2 1007.3,351.39 989.97,351.39 989.97,365.2 
		980.24,365.2 980.24,326.74 989.97,326.74 989.97,343.22 1007.3,343.22 	"/>
	<path class="st1" d="M1042.8,366.05c-5.63,0-10.14-1.82-13.52-5.46c-3.38-3.64-5.07-8.53-5.07-14.69c0-6.1,1.66-10.97,5-14.62
		c3.33-3.64,7.73-5.46,13.17-5.46c5.03,0,8.97,1.41,11.84,4.23v-3.31l9.58,0l0,38.46l-9.44,0v-3.73
		C1051.82,364.52,1047.97,366.05,1042.8,366.05 M1044.92,357.31c4.41,0,7.56-1.69,9.44-5.07v-12.75c-0.94-1.55-2.3-2.76-4.09-3.63
		c-1.79-0.87-3.64-1.3-5.57-1.3c-3.15,0-5.68,1-7.61,3c-1.93,1.99-2.89,4.78-2.89,8.34c0,3.52,0.96,6.31,2.89,8.35
		C1039.02,356.29,1041.63,357.31,1044.92,357.31"/>
	<path class="st1" d="M1088.31,326.74l18.6,0l0,38.46l-9.72,0V354l-8.73,0l-7.19,11.2l-10.56,0l8.24-12.61
		c-4.98-1.88-7.47-5.85-7.47-11.9c0-4.79,1.37-8.31,4.12-10.57C1078.34,327.86,1082.58,326.74,1088.31,326.74 M1097.4,346.74
		l0-11.98l-8.6,0c-4.88,0-7.32,1.97-7.32,5.92c0,4.04,2.33,6.06,6.97,6.06L1097.4,346.74z"/>
	<path class="st1" d="M1147.41,366.05c-5.63,0-10.14-1.82-13.52-5.46c-3.38-3.64-5.07-8.53-5.07-14.69c0-6.1,1.66-10.97,5-14.62
		c3.33-3.64,7.73-5.46,13.17-5.46c5.03,0,8.97,1.41,11.84,4.23v-3.31l9.58,0l0,38.46l-9.44,0v-3.73
		C1156.43,364.52,1152.58,366.05,1147.41,366.05 M1149.53,357.31c4.41,0,7.56-1.69,9.44-5.07v-12.75c-0.94-1.55-2.3-2.76-4.09-3.63
		c-1.79-0.87-3.64-1.3-5.57-1.3c-3.15,0-5.68,1-7.61,3c-1.93,1.99-2.89,4.78-2.89,8.34c0,3.52,0.96,6.31,2.89,8.35
		C1143.63,356.29,1146.24,357.31,1149.53,357.31"/>
	<path class="st1" d="M1206.66,344.28c2.49,0.61,4.44,1.74,5.85,3.38c1.41,1.65,2.11,3.74,2.11,6.27c0,3.71-1.22,6.52-3.66,8.42
		c-2.44,1.9-6.39,2.85-11.84,2.85l-21.7,0l0-38.39l20.92,0c9.02,0,13.53,3.13,13.53,9.37
		C1211.87,340.26,1210.14,342.96,1206.66,344.28 M1186.93,334.63v7.82l10,0c3.71,0,5.57-1.43,5.57-4.3c0-2.35-1.74-3.52-5.21-3.52
		L1186.93,334.63z M1199.05,357.31c3.85,0,5.78-1.31,5.78-3.95c0-2.63-2.09-3.95-6.27-3.95l-11.62,0v7.89L1199.05,357.31z"/>
	<polygon class="st1" points="1251.46,326.74 1251.46,335.47 1239.42,335.47 1239.42,365.2 1229.77,365.2 1229.77,335.47 
		1217.72,335.47 1217.72,326.74 	"/>
	<path class="st1" d="M1275.91,366.05c-6.39,0-11.52-1.82-15.39-5.46c-3.87-3.64-5.81-8.53-5.81-14.69c0-6.06,1.95-10.91,5.85-14.55
		c3.9-3.64,9.02-5.46,15.36-5.46c6.34,0,11.43,1.82,15.29,5.46c3.85,3.64,5.78,8.49,5.78,14.55c0,6.15-1.93,11.05-5.78,14.69
		C1287.34,364.23,1282.25,366.05,1275.91,366.05 M1275.91,357.17c3.28,0,5.95-1.03,7.99-3.1c2.04-2.07,3.07-4.79,3.07-8.17
		c0-3.33-1.02-6.02-3.07-8.07c-2.04-2.04-4.71-3.06-7.99-3.06c-3.33,0-6.02,1.02-8.06,3.06c-2.05,2.05-3.07,4.73-3.07,8.07
		c0,3.38,1.02,6.1,3.07,8.17C1269.88,356.14,1272.57,357.17,1275.91,357.17"/>
	<polygon class="st1" points="1304.23,365.2 1304.23,326.74 1313.95,326.74 1313.95,356.47 1328.18,356.47 1328.18,326.74 
		1337.83,326.74 1337.83,356.47 1352.06,356.47 1352.06,326.74 1361.78,326.74 1361.78,365.2 	"/>
	<polygon class="st1" points="1409.05,365.2 1396.37,365.2 1380.66,348.23 1380.66,365.2 1371.08,365.2 1371.08,326.74 
		1380.66,326.74 1380.66,345.48 1396.93,326.74 1408.7,326.74 1391.09,346.39 	"/>
	<path class="st1" d="M1432.16,366.05c-6.39,0-11.52-1.82-15.39-5.46c-3.87-3.64-5.81-8.53-5.81-14.69c0-6.06,1.95-10.91,5.85-14.55
		c3.9-3.64,9.02-5.46,15.36-5.46c6.34,0,11.43,1.82,15.29,5.46c3.85,3.64,5.78,8.49,5.78,14.55c0,6.15-1.93,11.05-5.78,14.69
		C1443.59,364.23,1438.5,366.05,1432.16,366.05 M1432.16,357.17c3.28,0,5.95-1.03,7.99-3.1c2.04-2.07,3.07-4.79,3.07-8.17
		c0-3.33-1.02-6.02-3.07-8.07c-2.04-2.04-4.71-3.06-7.99-3.06c-3.33,0-6.02,1.02-8.06,3.06c-2.05,2.05-3.07,4.73-3.07,8.07
		c0,3.38,1.02,6.1,3.07,8.17C1426.14,356.14,1428.82,357.17,1432.16,357.17"/>
	<path class="st1" d="M1459.98,365.41c-1.88,0-3.29-0.07-4.23-0.21l0-8.45h2.11c2.35,0,3.97-0.89,4.86-2.68
		c0.89-1.79,1.34-4.46,1.34-8.03l0-19.3l32.2,0l0,38.46l-9.65,0l0-29.73l-13.17,0l0,12.75c0,6.2-1.13,10.62-3.38,13.24
		C1467.8,364.1,1464.44,365.41,1459.98,365.41"/>
	<path class="st1" d="M1522.11,366.05c-5.63,0-10.14-1.82-13.52-5.46c-3.38-3.64-5.07-8.53-5.07-14.69c0-6.1,1.66-10.97,5-14.62
		c3.34-3.64,7.73-5.46,13.17-5.46c5.03,0,8.97,1.41,11.84,4.23v-3.31l9.58,0l0,38.46l-9.44,0v-3.73
		C1531.13,364.52,1527.28,366.05,1522.11,366.05 M1524.23,357.31c4.41,0,7.56-1.69,9.44-5.07l0-12.75c-0.94-1.55-2.3-2.76-4.09-3.63
		c-1.79-0.87-3.64-1.3-5.57-1.3c-3.15,0-5.68,1-7.61,3c-1.93,1.99-2.89,4.78-2.89,8.34c0,3.52,0.96,6.31,2.89,8.35
		C1518.33,356.29,1520.94,357.31,1524.23,357.31"/>
</g>
</svg>
